<svg width="24" height="25" viewBox="0 0 24 25" fill="none" xmlns="http://www.w3.org/2000/svg">
<path d="M14.9998 22.5V18.5C15.1389 17.2473 14.7797 15.9901 13.9998 15C16.9998 15 19.9998 13 19.9998 9.5C20.0798 8.25 19.7298 7.02 18.9998 6C19.2798 4.85 19.2798 3.65 18.9998 2.5C18.9998 2.5 17.9998 2.5 15.9998 4C13.3598 3.5 10.6398 3.5 7.99979 4C5.99979 2.5 4.99979 2.5 4.99979 2.5C4.69979 3.65 4.69979 4.85 4.99979 6C4.27167 7.01588 3.91827 8.25279 3.99979 9.5C3.99979 13 6.99979 15 9.99979 15C9.60979 15.49 9.31979 16.05 9.14979 16.65C8.97979 17.25 8.92979 17.88 8.99979 18.5V22.5" stroke="white" stroke-width="2" stroke-linecap="round" stroke-linejoin="round"/>
<path d="M9 18.5C4.49 20.5 4 16.5 2 16.5" stroke="white" stroke-width="2" stroke-linecap="round" stroke-linejoin="round"/>
</svg>
