<svg width="24" height="25" viewBox="0 0 24 25" fill="none" xmlns="http://www.w3.org/2000/svg">
<path d="M17 2.5H7C4.23858 2.5 2 4.73858 2 7.5V17.5C2 20.2614 4.23858 22.5 7 22.5H17C19.7614 22.5 22 20.2614 22 17.5V7.5C22 4.73858 19.7614 2.5 17 2.5Z" stroke="white" stroke-width="2" stroke-linecap="round" stroke-linejoin="round"/>
<path d="M16.0002 11.87C16.1236 12.7022 15.9815 13.5522 15.594 14.299C15.2065 15.0458 14.5933 15.6514 13.8418 16.0297C13.0903 16.4079 12.2386 16.5396 11.408 16.4059C10.5773 16.2723 9.80996 15.8801 9.21503 15.2852C8.62011 14.6902 8.22793 13.9229 8.09426 13.0922C7.9606 12.2615 8.09226 11.4099 8.47052 10.6584C8.84878 9.90685 9.45438 9.29374 10.2012 8.90624C10.948 8.51874 11.7979 8.37658 12.6302 8.5C13.4791 8.62588 14.265 9.02146 14.8719 9.6283C15.4787 10.2351 15.8743 11.0211 16.0002 11.87Z" stroke="white" stroke-width="2" stroke-linecap="round" stroke-linejoin="round"/>
<path d="M17.5 7H17.51" stroke="white" stroke-width="2" stroke-linecap="round" stroke-linejoin="round"/>
</svg>
