<svg width="197" height="29" viewBox="0 0 197 29" fill="none" xmlns="http://www.w3.org/2000/svg">
<path d="M10.1225 4.60573C10.5017 3.9118 11.4983 3.9118 11.8775 4.60573L13.4722 7.52379C13.6777 7.89977 14.0998 8.10308 14.5219 8.0293L17.7976 7.4567C18.5766 7.32053 19.198 8.09968 18.8919 8.82883L17.6047 11.895C17.4389 12.2901 17.5431 12.7469 17.864 13.0309L20.354 15.2349C20.9462 15.759 20.7244 16.7306 19.9635 16.9459L16.7637 17.8513C16.3514 17.968 16.0593 18.3343 16.0373 18.7622L15.8666 22.0832C15.826 22.873 14.9282 23.3054 14.2854 22.8447L11.5825 20.9075C11.2343 20.6579 10.7657 20.6579 10.4175 20.9075L7.71459 22.8447C7.07183 23.3054 6.17395 22.873 6.13337 22.0832L5.9627 18.7622C5.94071 18.3343 5.64856 17.968 5.23628 17.8513L2.03653 16.9459C1.27561 16.7306 1.05385 15.759 1.646 15.2349L4.13604 13.0309C4.45688 12.7469 4.56115 12.2901 4.3953 11.895L3.10814 8.82883C2.80205 8.09968 3.4234 7.32053 4.20238 7.4567L7.47809 8.0293C7.90016 8.10308 8.32232 7.89977 8.52779 7.52379L10.1225 4.60573Z" fill="#149BFC"/>
<path d="M42.76 23.264C40.232 23.264 38.312 22.592 37 21.248C35.688 19.888 35.032 17.8 35.032 14.984C35.032 12.248 35.672 10.184 36.952 8.792C38.232 7.384 40.168 6.68 42.76 6.68C43.608 6.68 44.456 6.784 45.304 6.992C46.168 7.2 47 7.488 47.8 7.856V10.736C46.984 10.224 46.192 9.856 45.424 9.632C44.656 9.408 43.912 9.296 43.192 9.296C42.136 9.296 41.248 9.488 40.528 9.872C39.824 10.24 39.288 10.84 38.92 11.672C38.568 12.504 38.392 13.616 38.392 15.008C38.392 16.384 38.576 17.488 38.944 18.32C39.312 19.152 39.856 19.752 40.576 20.12C41.312 20.488 42.224 20.672 43.312 20.672C43.968 20.672 44.672 20.56 45.424 20.336C46.192 20.112 46.984 19.752 47.8 19.256V22.136C47.336 22.36 46.816 22.56 46.24 22.736C45.68 22.912 45.104 23.04 44.512 23.12C43.92 23.216 43.336 23.264 42.76 23.264ZM56.0309 23.36C54.0469 23.36 52.5589 22.808 51.5669 21.704C50.5749 20.6 50.0789 19.008 50.0789 16.928C50.0789 14.704 50.5829 13.088 51.5909 12.08C52.6149 11.072 54.0869 10.568 56.0069 10.568C57.3509 10.568 58.4709 10.808 59.3669 11.288C60.2629 11.752 60.9269 12.456 61.3589 13.4C61.8069 14.344 62.0309 15.52 62.0309 16.928C62.0309 19.008 61.5109 20.6 60.4709 21.704C59.4469 22.808 57.9669 23.36 56.0309 23.36ZM56.0309 20.864C56.7349 20.864 57.3029 20.704 57.7349 20.384C58.1829 20.064 58.5109 19.616 58.7189 19.04C58.9269 18.448 59.0309 17.744 59.0309 16.928C59.0309 16.016 58.9189 15.272 58.6949 14.696C58.4869 14.12 58.1589 13.696 57.7109 13.424C57.2789 13.152 56.7189 13.016 56.0309 13.016C55.3269 13.016 54.7589 13.16 54.3269 13.448C53.8949 13.736 53.5749 14.168 53.3669 14.744C53.1749 15.32 53.0789 16.048 53.0789 16.928C53.0789 18.208 53.3109 19.184 53.7749 19.856C54.2389 20.528 54.9909 20.864 56.0309 20.864ZM70.3105 23.36C69.4785 23.36 68.6865 23.264 67.9345 23.072C67.1825 22.88 66.5185 22.544 65.9425 22.064C65.3665 21.584 64.9105 20.92 64.5745 20.072C64.2545 19.224 64.0945 18.144 64.0945 16.832C64.0945 14.896 64.5665 13.368 65.5105 12.248C66.4545 11.128 67.8865 10.568 69.8065 10.568C70.0785 10.568 70.4305 10.6 70.8625 10.664C71.2945 10.728 71.7345 10.84 72.1825 11C72.6465 11.144 73.0465 11.376 73.3825 11.696L72.7105 12.656V5.888H75.7105V20.168C75.7105 20.712 75.5505 21.184 75.2305 21.584C74.9265 21.984 74.5105 22.32 73.9825 22.592C73.4545 22.848 72.8705 23.04 72.2305 23.168C71.5905 23.296 70.9505 23.36 70.3105 23.36ZM70.4065 20.768C71.0625 20.768 71.6065 20.688 72.0385 20.528C72.4865 20.368 72.7105 20.136 72.7105 19.832V13.688C72.3585 13.48 71.9825 13.328 71.5825 13.232C71.1825 13.136 70.7985 13.088 70.4305 13.088C69.6945 13.088 69.0865 13.224 68.6065 13.496C68.1265 13.752 67.7665 14.168 67.5265 14.744C67.2865 15.304 67.1665 16.024 67.1665 16.904C67.1665 17.672 67.2625 18.344 67.4545 18.92C67.6465 19.496 67.9745 19.952 68.4385 20.288C68.9185 20.608 69.5745 20.768 70.4065 20.768ZM83.5748 23.36C82.9028 23.36 82.2628 23.296 81.6548 23.168C81.0468 23.04 80.5028 22.832 80.0228 22.544C79.5428 22.24 79.1588 21.832 78.8708 21.32C78.5988 20.792 78.4628 20.136 78.4628 19.352C78.4628 18.536 78.6308 17.848 78.9668 17.288C79.3028 16.712 79.7908 16.28 80.4308 15.992C81.0868 15.688 81.8868 15.536 82.8308 15.536C83.4068 15.536 83.9428 15.592 84.4388 15.704C84.9348 15.8 85.3828 15.936 85.7828 16.112C86.1828 16.288 86.5108 16.48 86.7668 16.688L86.9828 18.392C86.6468 18.168 86.2148 17.992 85.6868 17.864C85.1748 17.72 84.6148 17.648 84.0068 17.648C83.1588 17.648 82.5268 17.784 82.1108 18.056C81.6948 18.328 81.4868 18.752 81.4868 19.328C81.4868 19.728 81.5988 20.064 81.8228 20.336C82.0468 20.592 82.3348 20.792 82.6868 20.936C83.0388 21.064 83.4068 21.128 83.7908 21.128C84.6708 21.128 85.3028 21.072 85.6868 20.96C86.0868 20.832 86.2868 20.568 86.2868 20.168V15.392C86.2868 14.608 86.0388 14.04 85.5428 13.688C85.0468 13.32 84.3508 13.136 83.4548 13.136C82.7668 13.136 82.0628 13.256 81.3428 13.496C80.6228 13.72 80.0388 14.016 79.5908 14.384V11.624C80.0228 11.352 80.6708 11.112 81.5348 10.904C82.3988 10.696 83.3268 10.592 84.3188 10.592C84.7348 10.592 85.1748 10.632 85.6388 10.712C86.1028 10.792 86.5428 10.92 86.9588 11.096C87.3908 11.272 87.7828 11.52 88.1348 11.84C88.4868 12.144 88.7668 12.536 88.9748 13.016C89.1828 13.48 89.2868 14.048 89.2868 14.72V20.456C89.2868 21.208 89.0468 21.8 88.5668 22.232C88.0868 22.648 87.4228 22.936 86.5748 23.096C85.7268 23.272 84.7268 23.36 83.5748 23.36ZM92.6566 11.912C92.9926 11.752 93.3926 11.592 93.8566 11.432C94.3206 11.272 94.8246 11.136 95.3686 11.024C95.9126 10.896 96.4566 10.8 97.0006 10.736C97.5606 10.656 98.0886 10.616 98.5846 10.616C99.7046 10.616 100.633 10.768 101.369 11.072C102.121 11.36 102.681 11.824 103.049 12.464C103.433 13.088 103.625 13.912 103.625 14.936V23H100.601V15.464C100.601 15.16 100.561 14.872 100.481 14.6C100.401 14.312 100.265 14.064 100.073 13.856C99.8806 13.632 99.6166 13.464 99.2806 13.352C98.9446 13.224 98.5126 13.16 97.9846 13.16C97.5846 13.16 97.1766 13.2 96.7606 13.28C96.3446 13.36 95.9926 13.464 95.7046 13.592V23H92.6566V11.912ZM111.609 23.384C110.361 23.384 109.409 23.08 108.753 22.472C108.097 21.848 107.769 20.952 107.769 19.784V13.304H105.897V10.904H107.769V7.568H110.913V10.904H113.721V13.304H110.913V19.304C110.913 19.8 111.009 20.168 111.201 20.408C111.393 20.648 111.729 20.768 112.209 20.768C112.465 20.768 112.729 20.728 113.001 20.648C113.289 20.552 113.529 20.44 113.721 20.312V22.952C113.401 23.112 113.049 23.224 112.665 23.288C112.297 23.352 111.945 23.384 111.609 23.384ZM121.867 23.36C120.667 23.36 119.619 23.12 118.723 22.64C117.827 22.144 117.131 21.424 116.635 20.48C116.139 19.536 115.891 18.4 115.891 17.072C115.891 14.96 116.395 13.352 117.403 12.248C118.427 11.128 119.859 10.568 121.699 10.568C123.027 10.568 124.091 10.856 124.891 11.432C125.707 12.008 126.299 12.832 126.667 13.904C127.051 14.96 127.235 16.224 127.219 17.696H117.859L117.619 15.632H124.795L124.219 16.496C124.187 15.232 123.963 14.328 123.547 13.784C123.147 13.224 122.499 12.944 121.603 12.944C121.059 12.944 120.579 13.072 120.163 13.328C119.763 13.568 119.451 13.976 119.227 14.552C119.019 15.128 118.915 15.92 118.915 16.928C118.915 18.176 119.211 19.136 119.803 19.808C120.395 20.464 121.299 20.792 122.515 20.792C123.011 20.792 123.483 20.744 123.931 20.648C124.395 20.536 124.819 20.408 125.203 20.264C125.603 20.12 125.939 19.984 126.211 19.856V22.544C125.651 22.784 125.011 22.976 124.291 23.12C123.587 23.28 122.779 23.36 121.867 23.36ZM134.603 23L128.579 6.992H132.299L137.123 20.888H136.043L140.843 7.016L144.275 6.992L138.035 23H134.603ZM149.622 23.36C148.95 23.36 148.31 23.296 147.702 23.168C147.094 23.04 146.55 22.832 146.07 22.544C145.59 22.24 145.206 21.832 144.918 21.32C144.646 20.792 144.51 20.136 144.51 19.352C144.51 18.536 144.678 17.848 145.014 17.288C145.35 16.712 145.838 16.28 146.478 15.992C147.134 15.688 147.934 15.536 148.878 15.536C149.454 15.536 149.99 15.592 150.486 15.704C150.982 15.8 151.43 15.936 151.83 16.112C152.23 16.288 152.558 16.48 152.814 16.688L153.03 18.392C152.694 18.168 152.262 17.992 151.734 17.864C151.222 17.72 150.662 17.648 150.054 17.648C149.206 17.648 148.574 17.784 148.158 18.056C147.742 18.328 147.534 18.752 147.534 19.328C147.534 19.728 147.646 20.064 147.87 20.336C148.094 20.592 148.382 20.792 148.734 20.936C149.086 21.064 149.454 21.128 149.838 21.128C150.718 21.128 151.35 21.072 151.734 20.96C152.134 20.832 152.334 20.568 152.334 20.168V15.392C152.334 14.608 152.086 14.04 151.59 13.688C151.094 13.32 150.398 13.136 149.502 13.136C148.814 13.136 148.11 13.256 147.39 13.496C146.67 13.72 146.086 14.016 145.638 14.384V11.624C146.07 11.352 146.718 11.112 147.582 10.904C148.446 10.696 149.374 10.592 150.366 10.592C150.782 10.592 151.222 10.632 151.686 10.712C152.15 10.792 152.59 10.92 153.006 11.096C153.438 11.272 153.83 11.52 154.182 11.84C154.534 12.144 154.814 12.536 155.022 13.016C155.23 13.48 155.334 14.048 155.334 14.72V20.456C155.334 21.208 155.094 21.8 154.614 22.232C154.134 22.648 153.47 22.936 152.622 23.096C151.774 23.272 150.774 23.36 149.622 23.36ZM163.431 23.36C162.295 23.328 161.327 23.08 160.527 22.616C159.727 22.152 159.111 21.48 158.679 20.6C158.263 19.704 158.055 18.608 158.055 17.312C158.055 15.952 158.223 14.84 158.559 13.976C158.895 13.096 159.359 12.416 159.951 11.936C160.559 11.44 161.263 11.096 162.063 10.904C162.879 10.712 163.743 10.616 164.655 10.616C165.599 10.616 166.431 10.736 167.151 10.976C167.887 11.216 168.463 11.568 168.879 12.032C169.311 12.496 169.527 13.088 169.527 13.808V23.264C169.527 24 169.407 24.664 169.167 25.256C168.927 25.864 168.559 26.384 168.063 26.816C167.583 27.248 166.975 27.576 166.239 27.8C165.503 28.04 164.623 28.16 163.599 28.16C162.655 28.16 161.831 28.088 161.127 27.944C160.423 27.8 159.863 27.64 159.447 27.464V24.752C159.687 24.848 160.015 24.96 160.431 25.088C160.863 25.232 161.343 25.352 161.871 25.448C162.399 25.544 162.927 25.592 163.455 25.592C164.303 25.592 164.943 25.48 165.375 25.256C165.823 25.032 166.127 24.736 166.287 24.368C166.447 24 166.527 23.6 166.527 23.168V21.272L167.223 21.8C166.951 22.104 166.615 22.376 166.215 22.616C165.831 22.84 165.399 23.016 164.919 23.144C164.455 23.288 163.959 23.36 163.431 23.36ZM164.079 21.008C164.511 21.008 164.935 20.96 165.351 20.864C165.783 20.752 166.175 20.592 166.527 20.384V14.432C166.527 14.048 166.423 13.768 166.215 13.592C166.023 13.4 165.759 13.272 165.423 13.208C165.103 13.128 164.751 13.088 164.367 13.088C163.519 13.088 162.855 13.264 162.375 13.616C161.911 13.968 161.583 14.456 161.391 15.08C161.199 15.704 161.103 16.4 161.103 17.168C161.103 18.336 161.359 19.272 161.871 19.976C162.383 20.664 163.119 21.008 164.079 21.008ZM177.278 23.36C176.606 23.36 175.966 23.296 175.358 23.168C174.75 23.04 174.206 22.832 173.726 22.544C173.246 22.24 172.862 21.832 172.574 21.32C172.302 20.792 172.166 20.136 172.166 19.352C172.166 18.536 172.334 17.848 172.67 17.288C173.006 16.712 173.494 16.28 174.134 15.992C174.79 15.688 175.59 15.536 176.534 15.536C177.11 15.536 177.646 15.592 178.142 15.704C178.638 15.8 179.086 15.936 179.486 16.112C179.886 16.288 180.214 16.48 180.47 16.688L180.686 18.392C180.35 18.168 179.918 17.992 179.39 17.864C178.878 17.72 178.318 17.648 177.71 17.648C176.862 17.648 176.23 17.784 175.814 18.056C175.398 18.328 175.19 18.752 175.19 19.328C175.19 19.728 175.302 20.064 175.526 20.336C175.75 20.592 176.038 20.792 176.39 20.936C176.742 21.064 177.11 21.128 177.494 21.128C178.374 21.128 179.006 21.072 179.39 20.96C179.79 20.832 179.99 20.568 179.99 20.168V15.392C179.99 14.608 179.742 14.04 179.246 13.688C178.75 13.32 178.054 13.136 177.158 13.136C176.47 13.136 175.766 13.256 175.046 13.496C174.326 13.72 173.742 14.016 173.294 14.384V11.624C173.726 11.352 174.374 11.112 175.238 10.904C176.102 10.696 177.03 10.592 178.022 10.592C178.438 10.592 178.878 10.632 179.342 10.712C179.806 10.792 180.246 10.92 180.662 11.096C181.094 11.272 181.486 11.52 181.838 11.84C182.19 12.144 182.47 12.536 182.678 13.016C182.886 13.48 182.99 14.048 182.99 14.72V20.456C182.99 21.208 182.75 21.8 182.27 22.232C181.79 22.648 181.126 22.936 180.278 23.096C179.43 23.272 178.43 23.36 177.278 23.36ZM189.912 23.36C189.048 23.36 188.312 23.264 187.704 23.072C187.096 22.896 186.512 22.68 185.952 22.424V19.688C186.32 19.928 186.704 20.16 187.104 20.384C187.52 20.592 187.96 20.76 188.424 20.888C188.904 21.016 189.416 21.08 189.96 21.08C190.6 21.08 191.072 20.96 191.376 20.72C191.696 20.464 191.856 20.16 191.856 19.808C191.856 19.472 191.736 19.216 191.496 19.04C191.256 18.848 190.944 18.688 190.56 18.56C190.176 18.432 189.768 18.304 189.336 18.176C188.936 18.08 188.528 17.952 188.112 17.792C187.712 17.632 187.344 17.416 187.008 17.144C186.672 16.872 186.4 16.528 186.192 16.112C186 15.68 185.904 15.16 185.904 14.552C185.904 13.832 186.048 13.224 186.336 12.728C186.624 12.232 187 11.832 187.464 11.528C187.928 11.224 188.44 11.008 189 10.88C189.56 10.736 190.104 10.664 190.632 10.664C191.544 10.696 192.28 10.808 192.84 11C193.4 11.176 193.928 11.408 194.424 11.696L194.448 14.168C193.888 13.864 193.344 13.592 192.816 13.352C192.288 13.096 191.688 12.968 191.016 12.968C190.392 12.968 189.904 13.08 189.552 13.304C189.216 13.512 189.048 13.808 189.048 14.192C189.048 14.528 189.152 14.8 189.36 15.008C189.568 15.216 189.84 15.376 190.176 15.488C190.512 15.6 190.88 15.712 191.28 15.824C191.68 15.936 192.096 16.064 192.528 16.208C192.96 16.336 193.36 16.528 193.728 16.784C194.096 17.04 194.392 17.384 194.616 17.816C194.856 18.232 194.976 18.792 194.976 19.496C194.96 20.424 194.712 21.176 194.232 21.752C193.752 22.312 193.12 22.72 192.336 22.976C191.568 23.232 190.76 23.36 189.912 23.36Z" fill="#333333"/>
</svg>
